<?xml version="1.0" encoding="utf-8"?>
<!-- Generator: Adobe Illustrator 23.0.1, SVG Export Plug-In . SVG Version: 6.00 Build 0)  -->
<svg version="1.1" id="Capa_1" xmlns="http://www.w3.org/2000/svg" xmlns:xlink="http://www.w3.org/1999/xlink" x="0px" y="0px"
	 viewBox="0 0 496 496" style="enable-background:new 0 0 496 496;" xml:space="preserve">
<style type="text/css">
	.st0{fill:#6B6CF5;}
	.st1{fill:#11172B;}
	.st2{fill:none;stroke:#6B6CF5;stroke-width:15;stroke-miterlimit:10;}
</style>
<path class="st0" d="M328,96H56c-4.4,0-8-3.6-8-8V40c0-4.4,3.6-8,8-8h272c4.4,0,8,3.6,8,8v48C336,92.4,332.4,96,328,96z"/>
<rect x="320" y="112" class="st1" width="16" height="16"/>
<rect x="320" y="144" class="st1" width="16" height="16"/>
<rect x="320" y="176" class="st1" width="16" height="16"/>
<path class="st1" d="M0,0v347.3L116.7,464H321v-16H128v-32h104V272H64v64H16V16h352v144h16V0H0z M112,436.7L27.3,352H112V436.7z
	 M80,288h136v112h-88v-64H80V288z"/>
<rect x="96" y="304" class="st1" width="104" height="16"/>
<rect x="144" y="336" class="st1" width="56" height="16"/>
<rect x="144" y="368" class="st1" width="56" height="16"/>
<rect x="48" y="112" class="st1" width="256" height="16"/>
<rect x="48" y="144" class="st1" width="256" height="16"/>
<rect x="48" y="176" class="st1" width="256" height="16"/>
<rect x="48" y="208" class="st1" width="152" height="16"/>
<rect x="48" y="240" class="st1" width="152" height="16"/>
<rect x="216" y="208" class="st1" width="16" height="16"/>
<rect x="216" y="240" class="st1" width="16" height="16"/>
<path class="st2" d="M376,486.9c-1.3,0-2.5-0.3-3.7-1l-58.6-33.5c-29.8-17-48.3-48.9-48.3-83.1V258.5c0-4.1,3.3-7.4,7.4-7.4h20.5
	c30.8,0,59.4-15.3,76.5-40.9c2.7-4.1,9.5-4.1,12.3,0c17.1,25.6,45.7,40.9,76.5,40.9h20.5c4.1,0,7.4,3.3,7.4,7.4v110.8
	c0,34.3-18.5,66.1-48.3,83.1l-58.6,33.5C378.5,486.5,377.3,486.9,376,486.9z"/>
<polygon class="st1" points="339,417.5 301.3,379.8 312.7,368.5 339,394.9 445.3,288.5 456.7,299.8 "/>
</svg>
