<?xml version="1.0" encoding="utf-8"?>
<!-- Generator: Adobe Illustrator 23.0.1, SVG Export Plug-In . SVG Version: 6.00 Build 0)  -->
<svg version="1.1" id="_x33_0" xmlns="http://www.w3.org/2000/svg" xmlns:xlink="http://www.w3.org/1999/xlink" x="0px" y="0px"
	 viewBox="0 0 512 512" style="enable-background:new 0 0 512 512;" xml:space="preserve">
<style type="text/css">
	.st0{fill:#6B6CF5;}
	.st1{fill:#11172B;}
</style>
<g>
	<g>
		<path class="st0" d="M152,40h200v40H152V40z"/>
	</g>
	<g>
		<path class="st0" d="M104,112h64v32h-64V112z"/>
	</g>
	<g>
		<path class="st0" d="M184,112h64v32h-64V112z"/>
	</g>
	<g>
		<path class="st1" d="M488,120.4h-16c-8.8,0-16,7.2-16,16h-56v-112c0-8.8-7.2-16-16-16H124.7L56,77.1v267.3H8v144h256
			c8.8,0,16-7.2,16-16h0.9c8.6,0,17.3,2,25,5.9c13.2,6.6,28,10.1,42.7,10.1h12.8c3.3,9.3,12.1,16,22.5,16h16
			c11.1,0,20.3-7.6,23.1-17.8c2.8,1.1,5.8,1.8,8.9,1.8h32c13.2,0,24-10.8,24-24c0-6.2-2.4-11.7-6.2-16c3.8-4.3,6.2-9.8,6.2-16
			s-2.4-11.7-6.2-16c3.8-4.3,6.2-9.8,6.2-16s-2.4-11.7-6.2-16c3.8-4.3,6.2-9.8,6.2-16c0-13.2-10.8-24-24-24h-12.4
			c2.8-4.7,4.4-10.1,4.4-16c0-8.8-7.2-16-16-16h-16v-64h32c0,8.8,7.2,16,16,16h16c8.8,0,16-7.2,16-16v-112
			C504,127.6,496.8,120.4,488,120.4z M120,35.7v36.7H83.3L120,35.7z M264,472.4H24v-112h240V472.4z M155.3,344.4l12.7-12.7
			l12.7,12.7H155.3z M208,344.4v-66h-16v54.7l-24-24l-24,24v-54.7h-16v66H72v-256h64v-64h248v112h-56c0-8.8-7.2-16-16-16h-16
			c-8.8,0-16,7.2-16,16v112c0,8.8,7.2,16,16,16h16c8.8,0,16-7.2,16-16h32v64h-8c-20.5,0-40.6,7.2-56.4,20.4l-19.8,16.8
			c-2.9-3.2-7.1-5.3-11.8-5.3H208z M312,136.4v112h-16v-112H312z M408,480.4c0,4.4-3.6,8-8,8h-16c-4.4,0-8-3.6-8-8v-80v-39.3
			c1.2-0.4,2.4-0.7,3.8-0.7h13.6c-0.9,2.5-1.4,5.2-1.4,8c0,3.2,0.6,6.2,1.8,8.9c-10.2,2.8-17.8,12-17.8,23.1s7.6,20.3,17.8,23.1
			c-1.1,2.8-1.8,5.8-1.8,8.9c0,10.4,6.7,19.2,16,22.5V480.4z M472,400.4c0,4.4-3.6,8-8,8h-48h-16c-4.4,0-8-3.6-8-8s3.6-8,8-8h16h48
			C468.4,392.4,472,396,472,400.4z M472,432.4c0,4.4-3.6,8-8,8h-32h-16c-4.4,0-8-3.6-8-8s3.6-8,8-8h48
			C468.4,424.4,472,428,472,432.4z M464,472.4h-32c-4.4,0-8-3.6-8-8s3.6-8,8-8h32c4.4,0,8,3.6,8,8S468.4,472.4,464,472.4z
			 M472,368.4c0,4.4-3.6,8-8,8h-48c-4.4,0-8-3.6-8-8s3.6-8,8-8h48C468.4,360.4,472,364,472,368.4z M424,344.4h-44.2
			c-10.3,0-19.6,5.7-24.2,15c-5.2,10.5-15.8,17-27.6,17v16c12.2,0,23.5-4.7,32-12.7v92.7h-11.3c-12.3,0-24.6-2.9-35.6-8.4
			c-9.9-5-21.1-7.6-32.2-7.6H280v-89.3l25.9-22c12.9-10.8,29.3-16.7,46.1-16.7h88C440,337.2,432.8,344.4,424,344.4z M408,312.4h-32
			v-64h32V312.4z M424,232.4h-64h-32v-80h128v80H424z M488,248.4h-16v-112h16V248.4z"/>
		<path class="st1" d="M152,40.4h48v16h-48V40.4z"/>
		<path class="st1" d="M216,40.4h136v16H216V40.4z"/>
		<path class="st1" d="M152,72.4h200v16H152V72.4z"/>
		<path class="st1" d="M104,104.4h64v16h-64V104.4z"/>
		<path class="st1" d="M184,104.4h64v16h-64V104.4z"/>
		<path class="st1" d="M104,136.4h64v16h-64V136.4z"/>
		<path class="st1" d="M184,136.4h64v16h-64V136.4z"/>
	</g>
	<g>
		<g>
			<path class="st0" d="M168,296c-35.3,0-64-28.7-64-64s28.7-64,64-64s64,28.7,64,64S203.3,296,168,296z M168,208
				c-13.2,0-24,10.8-24,24s10.8,24,24,24s24-10.8,24-24S181.2,208,168,208z"/>
		</g>
	</g>
	<g>
		<path d="M168,264c-17.6,0-32-14.4-32-32s14.4-32,32-32s32,14.4,32,32S185.6,264,168,264z M168,216c-8.8,0-16,7.2-16,16
			s7.2,16,16,16s16-7.2,16-16S176.8,216,168,216z"/>
	</g>
</g>
</svg>
