<?xml version="1.0" encoding="utf-8"?>
<!-- Generator: Adobe Illustrator 23.0.1, SVG Export Plug-In . SVG Version: 6.00 Build 0)  -->
<svg version="1.1" id="Capa_1" xmlns="http://www.w3.org/2000/svg" xmlns:xlink="http://www.w3.org/1999/xlink" x="0px" y="0px"
	 viewBox="0 0 496 496" style="enable-background:new 0 0 496 496;" xml:space="preserve">
<style type="text/css">
	.st0{fill:#6B6CF5;}
	.st1{fill:#6B6CF5;stroke:#6B6CF5;stroke-width:19;stroke-miterlimit:10;}
	.st2{fill:#11172B;}
</style>
<g>
	<path class="st0" d="M247.3,300.3c-29.2,0-53-23.9-53-53s23.8-53,53-53s53,23.8,53,53S276.5,300.3,247.3,300.3z"/>
	<path class="st1" d="M179.4,440.1C115.9,415.8,69.6,361.4,55.5,295l15.7-3.3c13,61.1,55.6,111,114,133.4L179.4,440.1z"/>
	<path class="st1" d="M222.5,454.2c-5.1-1.1-10.2-2.4-15-3.8l4.5-15.3c4.4,1.3,9.1,2.5,13.8,3.5L222.5,454.2z"/>
	<path class="st0" d="M304,456c-17.6,0-32-14.4-32-32s14.4-32,32-32s32,14.4,32,32S321.6,456,304,456z"/>
	<path class="st0" d="M336,232.8c-9.3,0-16.8-7.5-16.8-16.8s7.5-16.8,16.8-16.8s16.8,7.5,16.8,16.8S345.3,232.8,336,232.8z"/>
	<path class="st0" d="M207.5,106.8c-9.3,0-16.8-7.5-16.8-16.8s7.5-16.8,16.8-16.8s16.8,7.5,16.8,16.8S216.8,106.8,207.5,106.8z"/>
</g>
<g>
	<path class="st2" d="M248,0C111.3,0,0,111.3,0,248s111.3,248,248,248s248-111.3,248-248S384.7,0,248,0z M248,296
		c-19.9,0-37.1-12.2-44.3-29.6l16.1-3.7c5.4,10.2,15.9,17.3,28.2,17.3c17.6,0,32-14.4,32-32s-14.4-32-32-32
		c-17.4,0-31.5,13.9-31.9,31.2l-15.9,3.7c-0.1-0.9-0.1-1.9-0.1-2.8c0-26.5,21.5-48,48-48s48,21.5,48,48
		C296.1,274.6,274.5,296,248,296z M232,248c0-8.8,7.2-16,16-16c8.8,0,16,7.2,16,16s-7.2,16-16,16S232,256.8,232,248z M240,184.6
		c-28.9,3.6-51.8,26.6-55.4,55.4h-56.2c4-59.8,51.8-107.6,111.6-111.6V184.6z M177.8,256l-48.1,11.1c-0.6-3.6-1-7.3-1.3-11.1H177.8z
		 M188,270.1c8.1,22,28,38.4,52,41.4v56.2c-50.6-3.4-92.6-38.1-106.8-84.9L188,270.1z M256,311.4c28.9-3.6,51.8-26.6,55.4-55.4h56.2
		c-4,59.8-51.8,107.6-111.6,111.6V311.4z M311.4,240c-3.6-28.9-26.6-51.8-55.4-55.4v-56.2c59.8,4,107.6,51.8,111.6,111.6H311.4z
		 M240,16.2v96.2c-68.6,4-123.6,59-127.6,127.6H16.2C20.4,118.4,118.4,20.4,240,16.2z M16.2,256h96.2c0.3,5,0.8,9.9,1.6,14.7
		l-75.9,17.5l3.6,15.6l75.8-17.5c15.9,53.9,64.3,93.9,122.4,97.3v96.2C118.4,475.6,20.4,377.6,16.2,256z M256,479.8v-96.2
		c68.6-4,123.6-59,127.6-127.6H400v-16h-16.4c-4-68.6-59-123.6-127.6-127.6V16.2C377.6,20.4,475.6,118.4,479.8,240H416v16h63.8
		C475.6,377.6,377.6,475.6,256,479.8z"/>
	<rect x="432" y="200" class="st0" width="16" height="16"/>
</g>
</svg>
