<?xml version="1.0" encoding="utf-8"?>
<!-- Generator: Adobe Illustrator 23.0.1, SVG Export Plug-In . SVG Version: 6.00 Build 0)  -->
<svg version="1.1" id="Layer_35" xmlns="http://www.w3.org/2000/svg" xmlns:xlink="http://www.w3.org/1999/xlink" x="0px" y="0px"
	 viewBox="0 0 512 512" style="enable-background:new 0 0 512 512;" xml:space="preserve">
<style type="text/css">
	.st0{fill:#6B6CF5;}
	.st1{fill:#11172B;}
</style>
<ellipse class="st0" cx="250.5" cy="472.7" rx="226.5" ry="39.3"/>
<g>
	<path class="st0" d="M240,232l16,24l16-24l-8-72h-16L240,232z"/>
	<path class="st0" d="M445,145.9c-9-6.8-19.4-12-30.7-14.9L392,162.2l-22.4-31.3c-11.3,3-21.7,8-30.7,14.9l26,46.2l27.1-32l27.1,32
		L445,145.9z"/>
	<path class="st0" d="M120,168c16,0,29.3-14.6,31.6-34.2c-9.8-3.8-20.4-5.8-31.6-5.8c-11.1,0-21.7,2.2-31.5,5.9
		C90.8,153.5,104,168,120,168z"/>
</g>
<path class="st1" d="M425.8,126.3C443.9,114.9,456,94.9,456,72c0-35.3-28.7-64-64-64s-64,28.7-64,64c0,22.8,12.1,42.9,30.1,54.2
	c-20.5,7.8-38,22.4-49.2,41.8c-5.9-3.9-12.4-7.2-19.1-9.7c18.1-11.3,30.2-31.4,30.2-54.2c0-35.3-28.7-64-64-64s-64,28.7-64,64
	c0,22.9,12.1,42.9,30.2,54.3c-6.8,2.6-13.2,5.8-19.1,9.7c-11.2-19.4-28.7-34-49.2-41.8c18-11.3,30.1-31.4,30.1-54.2
	c0-35.3-28.7-64-64-64S56,36.7,56,72c0,22.9,12.1,42.9,30.2,54.3C49.9,140,24,175,24,216v64c0,17.6,14.4,32,32,32h8v128
	c0,17.6,14.4,32,32,32c9.6,0,18.1-4.3,24-11.1c5.9,6.7,14.4,11.1,24,11.1c17.6,0,32-14.4,32-32V339.6c4.7,2.8,10.1,4.4,16,4.4h8v128
	c0,17.6,14.4,32,32,32c9.6,0,18.1-4.3,24-11.1c5.9,6.7,14.4,11.1,24,11.1c17.6,0,32-14.4,32-32V344h8c5.9,0,11.3-1.7,16-4.4V440
	c0,17.6,14.4,32,32,32c9.6,0,18.1-4.3,24-11.1c5.9,6.7,14.4,11.1,24,11.1c17.6,0,32-14.4,32-32V312h8c17.6,0,32-14.4,32-32v-64
	C488,175,462.1,140,425.8,126.3z M344,72c0-26.5,21.5-48,48-48s48,21.5,48,48s-21.5,48-48,48S344,98.5,344,72z M208,104
	c0-26.5,21.5-48,48-48s48,21.5,48,48s-21.5,48-48,48S208,130.5,208,104z M72,72c0-26.5,21.5-48,48-48s48,21.5,48,48s-21.5,48-48,48
	S72,98.5,72,72z M160,440c0,8.8-7.2,16-16,16s-16-7.2-16-16V272h-16v168c0,8.8-7.2,16-16,16s-16-7.2-16-16V184H64v112h-8
	c-8.8,0-16-7.2-16-16v-64c0-44.1,35.9-80,80-80c29.5,0,56.4,16.5,70.3,42.2C171.7,195.7,160,220.5,160,248v24.4V312V440z M320,328
	h-8V216h-16v256c0,8.8-7.2,16-16,16s-16-7.2-16-16V304h-16v168c0,8.8-7.2,16-16,16s-16-7.2-16-16V216h-16v112h-8
	c-8.8,0-16-7.2-16-16v-39.6V248c0-44.1,35.9-80,80-80s80,35.9,80,80v24v40C336,320.8,328.8,328,320,328z M472,280
	c0,8.8-7.2,16-16,16h-8V192h-16v248c0,8.8-7.2,16-16,16s-16-7.2-16-16V272h-16v168c0,8.8-7.2,16-16,16s-16-7.2-16-16V312v-40v-24
	c0-27.5-11.7-52.3-30.3-69.8c13.9-25.7,40.8-42.2,70.3-42.2c44.1,0,80,35.9,80,80V280z"/>
</svg>
