<?xml version="1.0" encoding="utf-8"?>
<!-- Generator: Adobe Illustrator 23.0.1, SVG Export Plug-In . SVG Version: 6.00 Build 0)  -->
<svg version="1.1" id="Layer_1" xmlns="http://www.w3.org/2000/svg" xmlns:xlink="http://www.w3.org/1999/xlink" x="0px" y="0px"
	 viewBox="0 0 496 496" style="enable-background:new 0 0 496 496;" xml:space="preserve">
<style type="text/css">
	.st0{fill:#11172B;}
	.st1{fill:#6F66FE;}
</style>
<path class="st0" d="M245.6,384.8c4.6,4.6,11.1,7.3,17.6,7.3c13.5,0,24.4-10.7,24.9-24.1c13-0.5,23.5-10.9,24-24
	c13-0.5,23.5-10.9,24-24c13.3-0.5,24.1-11.4,24.1-24.9c0-1.1-0.2-2.3-0.3-3.4l11.5-11.5l9.3,18.5l55.1-27.6l-7.2-14.3l-40.8,20.4
	l-48.5-96.9l42.1-16.5l-5.8-14.9L328,167.6l-71.3-21.4c-5.3-1.6-10.8-2.2-16.3-2V144h-86.6l-36.5-12.1l-5,15.2l29.6,9.8l-42,104.9
	L75.4,252l-5.9,14.8l39.4,15.8l9.9-24.7l14.3,14.3l-13.4,13.4c-4.6,4.6-7.3,11.1-7.3,17.6c0,13.4,10.7,24.4,24.1,24.9
	c0.5,13,10.9,23.5,24,24c0.5,13,10.9,23.5,24,24c0.5,13.3,11.4,24.1,24.9,24.1c6.6,0,13-2.7,17.6-7.3l13.4-13.4L245.6,384.8z
	 M251.9,161.8l70.6,21.2l41.2,82.4L352.1,277l-32.9-33.1c2.9,0.3,5.9,0.4,8.9,0.4v-16c-18.6,0-36.4-6.9-50.1-19.5l-18.7-17.1
	c-10.5-9.7-28.4-9.3-38.6,0.8l-21.2,21.2c-1.7,1.7-4,2.6-6.3,2.6c-4.9,0-9-4-9-9c0-2.4,0.9-4.6,2.6-6.3l30.5-30.5
	C226.3,161.5,239.8,158.1,251.9,161.8z M157.7,160.3H205l-29.3,29.4c-4.7,4.7-7.3,11-7.3,17.6c0,13.8,11.2,24.9,24.9,24.9
	c6.6,0,13-2.7,17.6-7.3l21.2-21.2c4.3-4.3,12-4.5,16.5-0.4l18.7,17.1c6.2,5.7,13.1,10.4,20.5,14.1l53.8,54.2c1.7,1.7,2.6,4,2.6,6.3
	c0,4.9-4,9-9,9c-2.4,0-4.7-0.9-6.3-2.6l-67-67l-11.3,11.3l67,67c1.7,1.7,2.6,4,2.6,6.3c0,4.9-4,9-9,9c-2.4,0-4.7-0.9-6.3-2.6l-67-67
	l-11.3,11.3l67,67c1.7,1.7,2.6,4,2.6,6.3c0,4.9-4,9-9,9c-2.4,0-4.7-0.9-6.3-2.6l-67-67l-11.3,11.3l67,67c1.7,1.7,2.6,4,2.6,6.3
	c0,4.9-4,9-9,9c-2.4,0-4.7-0.9-6.3-2.6l-9-9c0.2-1.1,0.3-2.2,0.3-3.4c0-13.5-10.7-24.4-24.1-24.9c-0.5-13-10.9-23.5-24-24
	c-0.5-13-10.9-23.5-24-24c-0.5-13.3-11.4-24.1-24.9-24.1c-1.1,0-2.3,0.2-3.4,0.3L125,241.5L157.7,160.3z M128.3,303.2
	c0-2.4,0.9-4.7,2.6-6.3l14.1-14c1.7-1.7,4-2.6,6.3-2.6c4.9,0,9,4,9,9c0,2.4-1,4.7-2.6,6.3l-14,14.1c-1.7,1.7-4,2.6-6.3,2.6
	C132.4,312.2,128.3,308.1,128.3,303.2z M152.3,327.2c0-2.4,0.9-4.7,2.6-6.3l14.1-14c1.7-1.7,4-2.6,6.3-2.6c4.9,0,9,4,9,9
	c0,2.4-1,4.7-2.6,6.3l-14,14.1c-1.7,1.7-4,2.6-6.3,2.6C156.3,336.1,152.3,332.1,152.3,327.2z M176.3,351.2c0-2.4,0.9-4.7,2.6-6.3
	l14.1-14c1.7-1.7,4-2.6,6.3-2.6c4.9,0,9,4,9,9c0,2.4-1,4.7-2.6,6.3l-14,14.1c-1.7,1.7-4,2.6-6.3,2.6
	C180.3,360.1,176.3,356.1,176.3,351.2z M229.6,367.4l-14,14.1c-1.7,1.7-4,2.6-6.3,2.6c-4.9,0-9-4-9-9c0-2.4,0.9-4.7,2.6-6.3l14.1-14
	c1.7-1.7,4-2.6,6.3-2.6c4.9,0,9,4,9,9C232.2,363.4,231.3,365.8,229.6,367.4z"/>
<path class="st0" d="M95.6,389.5l11.3-11.3l11.3,11.3l-11.3,11.3L95.6,389.5z"/>
<path class="st0" d="M126.1,416.6l8.9-13.3l13.3,8.9l-8.9,13.3L126.1,416.6z"/>
<path class="st0" d="M161.3,437.2l6.1-14.8l14.8,6.1l-6.1,14.8L161.3,437.2z"/>
<path class="st0" d="M199.8,450.5l3.1-15.7l15.7,3.1l-3.1,15.7L199.8,450.5z"/>
<path class="st0" d="M348.2,84.3L357,71l13.3,8.9l-8.9,13.3L348.2,84.3z"/>
<path class="st0" d="M314.2,68l6.1-14.8l14.8,6.1L329,74.1L314.2,68z"/>
<path class="st0" d="M277.8,58.5l3.1-15.7l15.7,3.1l-3.1,15.7L277.8,58.5z"/>
<path class="st0" d="M400.1,64.4h-16v40h-40v16H400v-56H400.1z"/>
<path class="st0" d="M112.4,344.1h-48v48h16v-32h32V344.1z"/>
<path class="st0" d="M248.2,56.4h8v-16h-8c-52.6,0-102.8,19.7-141.3,55.5l10.9,11.7C153.4,74.6,199.7,56.4,248.2,56.4z"/>
<path class="st0" d="M248.2,440h-8v16h8c73.1,0,139.4-37.3,177.5-99.7l-13.6-8.3C376.9,405.6,315.7,440,248.2,440z"/>
<g>
	<path class="st1" d="M44.6,331.2l-44.1-22L0,93.3l125.9,41.8l-6.4,12.8L44.6,331.2z"/>
	<path class="st1" d="M461.1,331.7l-93.9-179.3L496,101.9v206.6L461.1,331.7z"/>
</g>
</svg>
