<?xml version="1.0" encoding="utf-8"?>
<!-- Generator: Adobe Illustrator 23.0.1, SVG Export Plug-In . SVG Version: 6.00 Build 0)  -->
<svg version="1.1" id="Capa_1" xmlns="http://www.w3.org/2000/svg" xmlns:xlink="http://www.w3.org/1999/xlink" x="0px" y="0px"
	 viewBox="0 0 496 496" style="enable-background:new 0 0 496 496;" xml:space="preserve">
<style type="text/css">
	.st0{fill:#6F66FE;}
	.st1{fill:#11172B;}
</style>
<g>
	<path class="st0" d="M383.4,152c-1.6,0-3.1-0.5-4.5-1.4c-2.6-1.8-4-4.9-3.4-8l5.3-30.6h-21.4c-13.2,0-24-10.8-24-24V24
		c0-13.2,10.8-24,24-24h112c13.2,0,24,10.8,24,24v64c0,13.2-10.8,24-24,24h-21.7l-62.1,38.8C386.4,151.6,384.9,152,383.4,152z"/>
	
		<rect x="51.7" y="268.3" transform="matrix(0.7071 -0.7071 0.7071 0.7071 -194.2922 135.452)" class="st0" width="29.3" height="67.9"/>
	<polygon class="st0" points="208.4,465 231.4,443.9 183.4,395.9 160.3,416.8 	"/>
</g>
<path class="st1" d="M384,376.4c-6.5-19.4-23-33.7-43.1-37.4l-53.5-9.7v-4.1c9.3-5.4,17.4-12.6,23.8-21.2h16.2c13.2,0,24-10.8,24-24
	v-96c0-57.3-46.7-104-104-104s-104,46.7-104,104v56c0,15.4,11,28.3,25.5,31.3c4.5,23,18.9,42.4,38.5,53.8v4.1L154,339
	c-20.1,3.7-36.6,18-43.1,37.4l-3.2,9.6l-27.2-27.2c-3.1-3.1-3.1-8.2,0-11.3l31.6-31.6l-59.3-59.3L17,292.3
	C6.4,302.9,0.6,316.9,0.6,331.9s5.8,29,16.4,39.6l108.1,108.1c10.6,10.6,24.6,16.4,39.6,16.4s29-5.8,39.3-16.2l39-35.7L230.9,432
	h171.7L384,376.4z M247.4,356.7l-24-24v-0.4c7.6,2.4,15.6,3.7,24,3.7s16.4-1.3,24-3.7v0.4L247.4,356.7z M327.4,288h-6.7
	c2.3-5.3,4.1-10.9,5.2-16.7c3.4-0.7,6.6-2.1,9.5-3.8V280C335.4,284.4,331.8,288,327.4,288z M327.4,226.2c4.8,2.8,8,7.9,8,13.8
	s-3.2,11-8,13.8V226.2z M159.4,240c0-5.9,3.2-11,8-13.8v27.6C162.7,251,159.4,245.9,159.4,240z M167.4,200v9.1
	c-2.8,0.7-5.5,1.9-8,3.3V184c0-48.5,39.5-88,88-88s88,39.5,88,88v28.4c-2.5-1.4-5.2-2.6-8-3.3V200h-8c-23.7,0-45.9-9.2-62.6-25.9
	l-9.4-9.4l-9.4,9.4c-16.7,16.7-39,25.9-62.6,25.9H167.4z M183.4,256v-40.3c24-1.8,46.4-11.7,64-28.4c17.6,16.7,40,26.6,64,28.4V256
	c0,11.7-3.2,22.6-8.7,32h-55.3v16h42.2c-11.3,9.9-26,16-42.2,16C212.1,320,183.4,291.3,183.4,256z M89.4,315.9l-8.7,8.7L44,287.9
	l8.7-8.7L89.4,315.9z M164.7,480c-10.7,0-20.7-4.2-28.3-11.7L28.3,360.2c-7.6-7.6-11.7-17.6-11.7-28.3c0-10.7,4.2-20.7,11.7-28.3
	l4.4-4.4l36.7,36.7l-0.3,0.3c-9.4,9.4-9.4,24.6,0,33.9l57.4,57.4c4.5,4.5,10.6,7,17,7s12.4-2.5,16.7-6.8l0.6-0.5l36.9,36.9l-4.6,4.2
	C185.4,475.8,175.4,480,164.7,480z M209.4,453.3l-36.8-36.8l10.6-9.6l36.7,36.7L209.4,453.3z M214.9,416l-31.2-31.2l-34.6,31.3
	c-3,3-8.3,3-11.3,0l-17.5-17.5l5.7-17.2c4.6-13.9,16.4-24.1,30.8-26.7l55.9-10.2l34.7,34.7l34.7-34.7l55.9,10.2
	c14.4,2.6,26.2,12.8,30.8,26.7l11.5,34.5H214.9V416z"/>
<rect x="367.4" y="32" class="st1" width="96" height="16"/>
<rect x="367.4" y="64" class="st1" width="64" height="16"/>
<rect x="447.4" y="64" class="st1" width="16" height="16"/>
<path class="st1" d="M75.5,198.9l-8.2-13.7l-21.7,13C68.3,105.9,151.3,40,247.4,40c21,0,41.8,3.1,61.6,9.3l4.7-15.3
	c-21.4-6.6-43.7-10-66.4-10c-104.5,0-194.6,72.3-218,173.2l-15.2-25.3l-13.7,8.2L28.7,227L75.5,198.9z"/>
<path class="st1" d="M491.5,177.1L444.7,149l-28.1,46.9l13.7,8.2l14-23.3c7.4,21.6,11.1,44.1,11.1,67.2c0,47.6-16.5,94.1-46.4,131
	l12.4,10.1c32.2-39.7,50-89.8,50-141c0-24.5-3.9-48.4-11.6-71.2l23.5,14.1L491.5,177.1z"/>
</svg>
