<?xml version="1.0" encoding="utf-8"?>
<!-- Generator: Adobe Illustrator 23.0.1, SVG Export Plug-In . SVG Version: 6.00 Build 0)  -->
<svg version="1.1" id="Capa_1" xmlns="http://www.w3.org/2000/svg" xmlns:xlink="http://www.w3.org/1999/xlink" x="0px" y="0px"
	 viewBox="0 0 496 496" style="enable-background:new 0 0 496 496;" xml:space="preserve">
<style type="text/css">
	.st0{fill:#EEEEEE;}
	.st1{fill:#6B6CF5;}
	.st2{fill:#11172B;}
</style>
<g>
	<circle class="st0" cx="248" cy="248" r="248"/>
	<g>
		<path class="st1" d="M347.9,54.3c-45.6,0-84.3,28.8-99.4,69.1c1.7-0.5,3.4-0.8,5.1-0.8c10.2,0,18.4,8.2,18.4,18.4v1.2
			c0,6.7-3.6,12.8-9.4,16l-20.5,11.5c4.7,54.3,50.2,97,105.7,97c58.7,0,106.2-47.6,106.2-106.2S406.6,54.3,347.9,54.3z"/>
		<path class="st1" d="M90,236.3l15.2,22.8l15.2-22.8l-7.6-68.3H97.6L90,236.3z"/>
		<path class="st2" d="M416.2,342.9v-64.4c40.7-23.7,68.3-67.7,68.3-118.1c0-75.3-61.3-136.6-136.6-136.6
			c-64.4,0-119.8,45-133.3,107.5l-43.7,21.9c-8.8,4.4-18.6,6.8-28.5,7.1c9.8-9.6,15.9-23,15.9-37.8c0-29.3-23.8-53.1-53.1-53.1
			s-53.1,23.8-53.1,53.1c0,17,8,32.1,20.5,41.8c-33.8,10.7-58.4,42.3-58.4,79.6v60.7c0,20.9,17,37.9,37.9,37.9v121.4
			c0,16.7,13.6,30.3,30.3,30.3c9.1,0,17.2-4.1,22.8-10.5c5.6,6.4,13.7,10.5,22.8,10.5c16.7,0,30.3-13.6,30.3-30.3v-225
			c0-8.2,4.4-15.8,11.6-19.8l45.6-25.6c4.9,19.9,14,37.8,26.3,53v50.9c-38.3,3.8-68.3,36.2-68.3,75.5c0,41.8,34,75.9,75.9,75.9
			s75.9-34,75.9-75.9c0-39.3-30-71.7-68.3-75.5v-35.1c24.3,21.7,56.2,34.7,91,34.7c18.8,0,36.8-3.8,53.1-10.7v56.7
			c-38.3,3.8-68.3,36.2-68.3,75.5c0,41.8,34,75.9,75.9,75.9s75.9-34,75.9-75.9C484.5,379.1,454.5,346.7,416.2,342.9z M369.2,279.9
			c10.3-11.2,23.4-28.3,33.1-51.1h45.9C430.2,255.2,401.9,274.1,369.2,279.9z M348,41.5c8,7.2,24.8,24.4,37.5,50.7h-74.9
			C323.2,65.9,340,48.7,348,41.5z M391.8,107.4c4.8,13.4,8.1,28.6,8.9,45.5H295.2c0.8-16.9,4.1-32.1,8.9-45.5H391.8z M468.9,152.9
			h-53.1c-0.7-16.8-3.6-32-8-45.5h49C463.7,121.3,467.9,136.6,468.9,152.9z M468.9,168.1c-1,16.2-5.2,31.6-12,45.5h-49
			c4.4-13.6,7.3-28.8,8-45.5H468.9z M400.7,168.1c-0.8,16.9-4.1,32.1-8.9,45.5h-87.7c-4.8-13.4-8.1-28.6-8.9-45.5H400.7z
			 M385.3,228.7c-12.7,26.3-29.5,43.5-37.4,50.7c-8-7.2-24.8-24.4-37.5-50.7L385.3,228.7z M448.2,92.2h-45.9
			c-9.8-22.8-22.8-39.9-33.1-51.1C401.9,46.9,430.2,65.8,448.2,92.2z M326.8,40.9c-10.3,11.2-23.5,28.4-33.3,51.3h-45.9
			C265.8,65.5,294.3,46.7,326.8,40.9z M67.3,122.5c0-20.9,17-37.9,37.9-37.9s37.9,17,37.9,37.9s-17,37.9-37.9,37.9
			S67.3,143.5,67.3,122.5z M162.5,205.8c-11.9,6.7-19.3,19.4-19.3,33.1v225c0,8.4-6.8,15.2-15.2,15.2s-15.2-6.8-15.2-15.2V297H97.6
			v166.9c0,8.4-6.8,15.2-15.2,15.2s-15.2-6.8-15.2-15.2V228.7H52.1v98.6c-12.5,0-22.8-10.2-22.8-22.8v-60.7
			c0-37.7,30.6-68.3,68.3-68.3h42.8c12.9,0,25.8-3,37.3-8.8l71.1-35.6c1.5-0.8,3.2-1.1,4.9-1.1c6,0,10.8,4.9,10.8,10.8v1.2
			c0,3.9-2.1,7.5-5.5,9.4L162.5,205.8z M266.4,164.8c8.2-4.6,13.2-13.3,13.2-22.7V141c0-14.3-11.7-26-26-26c-4,0-8,0.9-11.6,2.7
			l-9.2,4.6c1.7-5.1,3.6-10.2,6-15H288c-5,15.6-8.3,33.3-8.3,53.1s3.3,37.5,8.3,53.1h-49.2c-4.2-8.7-7.4-18.1-9.5-27.9L266.4,164.8z
			 M213,421.4c8.5-11.3,22-18.1,36.4-18.1c14.4,0,27.8,6.8,36.4,18.1c-10.2,7.6-22.7,12.2-36.4,12.2S223.1,429,213,421.4L213,421.4z
			 M226.6,365.3c0-12.5,10.2-22.8,22.8-22.8c12.5,0,22.8,10.2,22.8,22.8s-10.2,22.8-22.8,22.8C236.8,388.1,226.6,377.8,226.6,365.3
			L226.6,365.3z M310,372.9c0,14.4-5,27.6-13.4,38c-6-7.5-13.6-13.4-22.2-17.3c7.8-7,12.9-17,12.9-28.3c0-20.9-17-37.9-37.9-37.9
			s-37.9,17-37.9,37.9c0,11.3,5,21.3,12.9,28.3c-8.6,3.9-16.2,9.8-22.2,17.3c-8.4-10.4-13.4-23.6-13.4-38
			c0-33.5,27.2-60.7,60.7-60.7S310,339.4,310,372.9z M247.5,228.7h46.1c9.8,22.9,22.9,40.1,33.3,51.3
			C294,274.3,265.6,255.5,247.5,228.7z M372.3,466.9c8.5-11.3,22-18.1,36.4-18.1s27.8,6.8,36.4,18.1c-10.2,7.6-22.7,12.2-36.4,12.2
			S382.4,474.5,372.3,466.9z M385.9,410.8c0-12.5,10.2-22.8,22.8-22.8s22.8,10.2,22.8,22.8s-10.2,22.8-22.8,22.8
			S385.9,423.4,385.9,410.8z M455.9,456.4c-6-7.5-13.6-13.4-22.2-17.3c7.8-7,12.9-17,12.9-28.3c0-20.9-17-37.9-37.9-37.9
			s-37.9,17-37.9,37.9c0,11.3,5,21.3,12.9,28.3c-8.6,3.9-16.2,9.8-22.2,17.3c-8.4-10.4-13.4-23.6-13.4-38
			c0-33.5,27.2-60.7,60.7-60.7s60.7,27.2,60.7,60.7C469.3,432.8,464.3,446,455.9,456.4z"/>
		<path d="M310,122.5h15.2v15.2H310V122.5z"/>
		<path d="M340.4,122.5h15.2v15.2h-15.2V122.5z"/>
		<path d="M370.7,122.5h15.2v15.2h-15.2V122.5z"/>
		<path d="M370.7,183.2h15.2v15.2h-15.2V183.2z"/>
		<path d="M340.4,183.2h15.2v15.2h-15.2V183.2z"/>
		<path d="M310,183.2h15.2v15.2H310V183.2z"/>
	</g>
</g>
</svg>
