<?xml version="1.0" encoding="utf-8"?>
<!-- Generator: Adobe Illustrator 23.0.1, SVG Export Plug-In . SVG Version: 6.00 Build 0)  -->
<svg version="1.1" id="Capa_1" xmlns="http://www.w3.org/2000/svg" xmlns:xlink="http://www.w3.org/1999/xlink" x="0px" y="0px"
	 viewBox="0 0 496 496" style="enable-background:new 0 0 496 496;" xml:space="preserve">
<style type="text/css">
	.st0{fill:#EEEEEE;}
	.st1{fill:#11172B;}
	.st2{fill:#6B6CF5;}
</style>
<circle class="st0" cx="-315.4" cy="182.1" r="248"/>
<path class="st1" d="M-371.4,194.3h-106.7V64.2h182.2v72.6h-13V77.2h-156.2v104.1h93.7V194.3z"/>
<path class="st2" d="M-243.8,70.7h91.1v58.6h-65.1V96.8h-26V70.7z"/>
<path class="st2" d="M-289.4,324.5c-53.8,0-97.6-43.8-97.6-97.6c0-52.9,44.7-97.6,97.6-97.6c53.8,0,97.6,43.8,97.6,97.6
	S-235.5,324.5-289.4,324.5z M-289.4,161.8c-35.3,0-65.1,29.8-65.1,65.1c0,35.9,29.2,65.1,65.1,65.1s65.1-29.2,65.1-65.1
	S-253.5,161.8-289.4,161.8z"/>
<path class="st1" d="M-113.7,51.2V31.6c0-17.9-14.6-32.5-32.5-32.5h-338.4c-17.9,0-32.5,14.6-32.5,32.5v19.5h13v247.3h-13v19.5
	c0,17.9,14.6,32.5,32.5,32.5h278.3l36.6,41.3c6.1,6.9,14.8,10.8,24,10.8c17.7,0,32.1-14.4,32.1-32.1c0-9.2-3.9-17.9-10.8-24
	l-2.6-2.3c8.2-6,13.4-15.6,13.4-26.2v-19.5h-13V51.2H-113.7z M-504.1,31.6c0-10.7,8.7-19.5,19.5-19.5h338.4
	c10.8,0,19.5,8.8,19.5,19.5v6.5h-377.4V31.6z M-126.7,318c0,7.4-4.2,14-10.5,17.3l-26.8-23.8h37.3V318z M-139.7,298.4h-38.9
	l-26.1-23.2c-2.2,3.8-4.6,7.4-7.3,10.9l79,70.1c4.1,3.6,6.4,8.8,6.4,14.2c0,10.5-8.5,19-19,19c-5.4,0-10.6-2.3-14.2-6.4l-70.1-79
	c-3.5,2.7-7.1,5.1-10.9,7.3l23.1,26h-266.9c-10.8,0-19.5-8.8-19.5-19.5v-6.5h166.3c-6.4-3.7-12.3-8-17.6-13h-57.5v-78.1h26.4
	c0.3-4.4,0.8-8.8,1.7-13h-37.3l-42.9,42.9v48.2h-26V51.2h351.4L-139.7,298.4L-139.7,298.4z M-426,298.4h-26v-42.9l26-26V298.4z"/>
<path class="st1" d="M-243.8,64.2h91.1v13h-91.1V64.2z"/>
<path class="st1" d="M-243.8,90.2h91.1v13h-91.1V90.2z"/>
<path class="st1" d="M-165.7,116.2h13v13h-13V116.2z"/>
<path class="st1" d="M-191.8,116.2h13v13h-13V116.2z"/>
<path class="st1" d="M-217.8,116.2h13v13h-13V116.2z"/>
<path class="st1" d="M-289.4,298.4c39.5,0,71.6-32.1,71.6-71.6s-32.1-71.6-71.6-71.6s-71.6,32.1-71.6,71.6
	C-361,266.3-328.8,298.4-289.4,298.4z M-308.9,282v-58l10.5,9.4h15.5v51.7c-2.1,0.2-4.3,0.4-6.5,0.4
	C-296.2,285.4-302.8,284.2-308.9,282L-308.9,282z M-269.8,282v-48.6h38.7C-233.7,255.9-249.1,274.6-269.8,282z M-289.4,168.3
	c30.1,0,54.9,22.8,58.2,52.1h-62.2l-38.2-34C-320.9,175.3-306,168.3-289.4,168.3L-289.4,168.3z M-339.5,196.8l17.6,15.7v63.1
	c-15.7-10.5-26-28.4-26-48.7C-347.9,215.8-344.8,205.6-339.5,196.8L-339.5,196.8z"/>
<g>
	<circle class="st0" cx="248.9" cy="248" r="248"/>
	<g>
		<g>
			<rect x="192.1" y="216.5" class="st1" width="12.6" height="12.6"/>
			<rect x="147.9" y="241.7" class="st1" width="12.6" height="12.6"/>
			<rect x="261.5" y="298.5" class="st1" width="12.6" height="12.6"/>
			<path class="st1" d="M248.9,115.5c-24.4,0-48.3,6.8-69.2,19.7l3.7,6.1l-2.1,4.3l24.5,12.2c7.2,3.6,11.6,10.8,11.6,18.8v8.4
				c0,13.9,11.3,25.2,25.2,25.2c10.4,0,18.9,8.5,18.9,18.9S253,248,242.6,248h-22.1c-15.7,0-28.4,12.7-28.4,28.4
				c0,8.7-7.1,15.8-15.8,15.8h-38.8c-5.5-13.7-8.5-28.6-8.5-44.2c0-22,6.2-43.7,17.8-62.6l-10.7-6.6c-12.9,20.9-19.7,44.9-19.7,69.2
				c0,73.1,59.4,132.5,132.5,132.5c24.4,0,48.3-6.8,69.2-19.7l-6.6-10.7c-18.9,11.6-40.6,17.8-62.6,17.8c-15.3,0-29.9-3-43.3-8.2
				l11.4-12.5c8.1-8.8,12.6-20.3,12.7-32.2c0.2-19.5,16.2-35.4,35.7-35.4h3.7c8.5,0,16.9-2,24.5-5.8l4.8-2.4
				c5.8-2.9,12.4-4.5,18.9-4.5c11.1,0,22,4.5,29.8,12.4c4.5,4.5,8.6,9.6,12.4,14.9c-2.4,5.7-5.2,11.2-8.4,16.5l10.7,6.6
				c12.9-20.9,19.7-44.9,19.7-69.2C381.4,174.9,322,115.5,248.9,115.5z M260.3,128.7c48.3,4.6,88.4,38,102.7,82.8
				c-13,11.3-29.4,17.6-46.7,17.6c-9.4,0-17-7.6-17-17c0-15.1-8.2-29.2-21.3-36.7l-8-4.5c-9.2-5.3-14.9-15.1-14.9-25.7
				C255.2,139.2,257.1,133.5,260.3,128.7z M355.9,270.4c-10.4-10.4-24.1-16.1-38.8-16.1c-8.5,0-16.9,2-24.5,5.8l-4.8,2.4
				c-5.8,2.9-12.4,4.5-18.9,4.5h-3.7c-26.4,0-48.1,21.5-48.3,47.9c-0.1,8.8-3.4,17.3-9.4,23.8l-14.2,15.5
				c-21.2-11.1-38.7-28.4-50.1-49.4h33c15.7,0,28.4-12.7,28.4-28.4c0-8.7,7.1-15.8,15.8-15.8h22.1c17.4,0,31.5-14.2,31.5-31.5
				s-14.2-31.5-31.5-31.5c-7,0-12.6-5.7-12.6-12.6v-8.4c0-12.8-7.1-24.3-18.6-30.1l-13.5-6.8c15.2-7.2,31.7-11.1,48.4-11.5
				c-2.3,5.3-3.7,11-3.7,16.9c0,15.1,8.2,29.2,21.3,36.7l8,4.5c9.2,5.3,14.9,15.1,14.9,25.7c0,16.3,13.3,29.6,29.6,29.6
				c18.3,0,35.7-5.9,50.1-16.8c1.5,7.5,2.3,15.2,2.3,23.1c0,10.8-1.5,21.5-4.4,31.8C361.7,276.5,358.9,273.3,355.9,270.4z"/>
			<path class="st1" d="M165,378.7l-8.9-8.9l-42.3,42.3l18.9,18.9H65.9v-66.8l18.9,18.9l42.3-42.3l-8.9-8.9l-10.9,10.9
				c-6.2-9.3-11.5-19.1-15.8-29.3l-11.6,4.9c4.9,11.8,11.1,23,18.4,33.5l-13.5,13.5l-31.5-31.5v109.9h109.9l-31.5-31.5l13.5-13.5
				c10.5,7.3,21.8,13.5,33.5,18.4l4.9-11.6c-10.2-4.3-20.1-9.6-29.3-15.8L165,378.7z"/>
			
				<rect x="126.4" y="355.3" transform="matrix(0.7071 -0.7071 0.7071 0.7071 -216.0379 201.5892)" class="st1" width="17.8" height="12.6"/>
			
				<rect x="101.2" y="380.5" transform="matrix(0.7071 -0.7071 0.7071 0.7071 -241.2768 191.1346)" class="st1" width="17.8" height="12.6"/>
			<path class="st1" d="M190.8,421.6c4.6,1.5,9.3,2.9,13.9,4.1l3-12.2c-4.4-1.1-8.7-2.3-13-3.8L190.8,421.6z"/>
		</g>
		<path class="st2" d="M122.7,191.2c-38.3,0-69.4-31.1-69.4-69.4s31.1-69.4,69.4-69.4s69.4,31.1,69.4,69.4S161,191.2,122.7,191.2z"
			/>
		<path d="M607,380.5c-3.5,0-6.3-2.8-6.3-6.3c0-3.5,2.8-6.3,6.3-6.3s6.3,2.8,6.3,6.3h12.6c0-8.2-5.3-15.2-12.6-17.8v-13.8h-12.6
			v13.8c-7.3,2.6-12.6,9.6-12.6,17.8c0,10.4,8.5,18.9,18.9,18.9c3.5,0,6.3,2.8,6.3,6.3s-2.8,6.3-6.3,6.3s-6.3-2.8-6.3-6.3h-12.6
			c0,8.2,5.3,15.2,12.6,17.8V431h12.6v-13.8c7.3-2.6,12.6-9.6,12.6-17.8C625.9,389,617.4,380.5,607,380.5z"/>
		<path class="st1" d="M122.7,115.5c-3.5,0-6.3-2.8-6.3-6.3c0-3.5,2.8-6.3,6.3-6.3c3.5,0,6.3,2.8,6.3,6.3h12.6
			c0-8.2-5.3-15.2-12.6-17.8V77.6h-12.6v13.8c-7.3,2.6-12.6,9.6-12.6,17.8c0,10.4,8.5,18.9,18.9,18.9c3.5,0,6.3,2.8,6.3,6.3
			s-2.8,6.3-6.3,6.3c-3.5,0-6.3-2.8-6.3-6.3h-12.6c0,8.2,5.3,15.2,12.6,17.8V166H129v-13.8c7.3-2.6,12.6-9.6,12.6-17.8
			C141.6,124,133.1,115.5,122.7,115.5z"/>
		<g>
			<rect x="166.9" y="191.2" class="st1" width="12.6" height="12.6"/>
		</g>
		<g>
			<rect x="280.4" y="330" class="st1" width="12.6" height="12.6"/>
		</g>
		<g>
			<path class="st1" d="M334.6,52.4l31.5,31.5l-13.5,13.5C342.2,90.1,331,83.9,319.2,79l-4.9,11.6c10.2,4.3,20.1,9.6,29.3,15.8
				l-10.9,10.9l8.9,8.9L384,83.9L365.1,65h66.8v66.8L413,112.9l-42.3,42.3l8.9,8.9l10.9-10.9c6.2,9.3,11.5,19.1,15.8,29.3l11.6-4.9
				c-4.9-11.8-11.1-23-18.4-33.5l13.5-13.5l31.5,31.5V52.4H334.6z"/>
			
				<rect x="353.6" y="128.1" transform="matrix(0.7071 -0.7071 0.7071 0.7071 11.1137 295.68)" class="st1" width="17.8" height="12.6"/>
			
				<rect x="378.8" y="102.9" transform="matrix(0.7071 -0.7071 0.7071 0.7071 36.3526 306.1347)" class="st1" width="17.8" height="12.6"/>
			<rect x="305.7" y="279.5" class="st1" width="12.6" height="12.6"/>
			<path class="st1" d="M410.5,193.9c1.4,4.2,2.7,8.6,3.8,13l12.2-3c-1.2-4.7-2.5-9.4-4.1-13.9L410.5,193.9z"/>
			<path class="st1" d="M307,74.4c-4.6-1.5-9.3-2.9-13.9-4.1l-3,12.2c4.4,1.1,8.7,2.3,13,3.8L307,74.4z"/>
		</g>
		<g>
			<path class="st1" d="M75.3,306.1c-1.5-4.6-2.9-9.3-4.1-13.9l12.2-3c1.1,4.4,2.3,8.7,3.8,13L75.3,306.1z"/>
		</g>
		<g>
			<path class="st2" d="M375.1,443.6c-38.3,0-69.4-31.1-69.4-69.4s31.1-69.4,69.4-69.4s69.4,31.1,69.4,69.4S413.4,443.6,375.1,443.6
				z"/>
			<g>
				<path class="st1" d="M351.8,349.8v11.3c4.5-5.2,8.3-10.9,11.4-17.1h-7.8C354.3,346,353.1,348,351.8,349.8z"/>
				<g>
					<path class="st1" d="M396.6,364.7c0-8.3-4.9-15.5-12-18.8c-1.6,4.1-3.5,8-5.7,11.8c2.3,1.2,3.9,3.8,3.9,6.9
						c0,4.4-3.1,7.8-6.9,7.8h-7c-5,6.1-10.7,11.6-17.1,16.5v15.4h13.8v-19.8h6.5l11.4,19.8h14.8l-12.8-22.1
						C392.2,378.8,396.6,372.1,396.6,364.7z"/>
					<path class="st1" d="M365.6,357h6.1c2.5-4.1,4.6-8.4,6.5-12.8c-0.7-0.1-1.5-0.1-2.2-0.1h-5.4c-4.5,10-10.9,19.1-18.7,26.7v9.6
						c5.2-4.4,9.8-9.2,13.8-14.5V357z"/>
				</g>
			</g>
		</g>
	</g>
</g>
</svg>
