<?xml version="1.0" encoding="utf-8"?>
<!-- Generator: Adobe Illustrator 23.0.1, SVG Export Plug-In . SVG Version: 6.00 Build 0)  -->
<svg version="1.1" id="Capa_1" xmlns="http://www.w3.org/2000/svg" xmlns:xlink="http://www.w3.org/1999/xlink" x="0px" y="0px"
	 viewBox="0 0 496 496" style="enable-background:new 0 0 496 496;" xml:space="preserve">
<style type="text/css">
	.st0{fill:#EEEEEE;}
	.st1{fill:#11172B;}
	.st2{fill:#6B6CF5;}
</style>
<circle class="st0" cx="248" cy="248" r="248"/>
<path class="st1" d="M192,260.2H85.3V130.1h182.2v72.6h-13v-59.6H98.3v104.1H192V260.2z"/>
<path class="st2" d="M319.6,136.6h91.1v58.6h-65.1v-32.5h-26V136.6z"/>
<path class="st2" d="M274,390.4c-53.8,0-97.6-43.8-97.6-97.6c0-52.9,44.7-97.6,97.6-97.6c53.8,0,97.6,43.8,97.6,97.6
	S327.9,390.4,274,390.4z M274,227.7c-35.3,0-65.1,29.8-65.1,65.1c0,35.9,29.2,65.1,65.1,65.1s65.1-29.2,65.1-65.1
	S309.9,227.7,274,227.7z"/>
<path class="st1" d="M449.7,117.1V97.5c0-17.9-14.6-32.5-32.5-32.5H78.8c-17.9,0-32.5,14.6-32.5,32.5v19.5h13v247.3h-13v19.5
	c0,17.9,14.6,32.5,32.5,32.5h278.3l36.6,41.3c6.1,6.9,14.8,10.8,24,10.8c17.7,0,32.1-14.4,32.1-32.1c0-9.2-3.9-17.9-10.8-24
	l-2.6-2.3c8.2-6,13.4-15.6,13.4-26.2v-19.5h-13V117.1H449.7z M59.3,97.5C59.3,86.8,68,78,78.8,78h338.4c10.8,0,19.5,8.8,19.5,19.5
	v6.5H59.3V97.5z M436.7,383.9c0,7.4-4.2,14-10.5,17.3l-26.8-23.8h37.3V383.9z M423.7,364.3h-38.9l-26.1-23.2
	c-2.2,3.8-4.6,7.4-7.3,10.9l79,70.1c4.1,3.6,6.4,8.8,6.4,14.2c0,10.5-8.5,19-19,19c-5.4,0-10.6-2.3-14.2-6.4l-70.1-79
	c-3.5,2.7-7.1,5.1-10.9,7.3l23.1,26H78.8c-10.8,0-19.5-8.8-19.5-19.5v-6.5h166.3c-6.4-3.7-12.3-8-17.6-13h-57.5v-78.1h26.4
	c0.3-4.4,0.8-8.8,1.7-13h-37.3l-42.9,42.9v48.2h-26V117.1h351.4V364.3z M137.4,364.3h-26v-42.9l26-26V364.3z"/>
<path class="st1" d="M319.6,130.1h91.1v13h-91.1V130.1z"/>
<path class="st1" d="M319.6,156.1h91.1v13h-91.1V156.1z"/>
<path class="st1" d="M397.7,182.1h13v13h-13V182.1z"/>
<path class="st1" d="M371.6,182.1h13v13h-13V182.1z"/>
<path class="st1" d="M345.6,182.1h13v13h-13V182.1z"/>
<path class="st1" d="M274,364.3c39.5,0,71.6-32.1,71.6-71.6s-32.1-71.6-71.6-71.6s-71.6,32.1-71.6,71.6
	C202.4,332.2,234.6,364.3,274,364.3z M254.5,347.9v-58l10.5,9.4h15.5v51.7c-2.1,0.2-4.3,0.4-6.5,0.4
	C267.2,351.3,260.6,350.1,254.5,347.9L254.5,347.9z M293.6,347.9v-48.6h38.7C329.7,321.8,314.3,340.5,293.6,347.9z M274,234.2
	c30.1,0,54.9,22.8,58.2,52.1H270l-38.2-34C242.5,241.2,257.4,234.2,274,234.2L274,234.2z M223.9,262.7l17.6,15.7v63.1
	c-15.7-10.5-26-28.4-26-48.7C215.5,281.7,218.6,271.5,223.9,262.7L223.9,262.7z"/>
</svg>
