<?xml version="1.0" encoding="utf-8"?>
<!-- Generator: Adobe Illustrator 23.0.1, SVG Export Plug-In . SVG Version: 6.00 Build 0)  -->
<svg version="1.1" id="Capa_1" xmlns="http://www.w3.org/2000/svg" xmlns:xlink="http://www.w3.org/1999/xlink" x="0px" y="0px"
	 viewBox="0 0 496 496" style="enable-background:new 0 0 496 496;" xml:space="preserve">
<style type="text/css">
	.st0{fill:#EEEEEE;}
	.st1{fill:#6B6CF5;}
	.st2{fill:#11172B;}
</style>
<g>
	<circle class="st0" cx="248.2" cy="248" r="248"/>
	<rect x="68.3" y="64.2" class="st1" width="356.3" height="37.9"/>
	<g>
		<path class="st2" d="M416.6,60.7H79.4c-10.3,0-18.7,8.4-18.7,18.7v337.2c0,10.3,8.4,18.7,18.7,18.7h337.2
			c10.3,0,18.7-8.4,18.7-18.7V79.4C435.3,69.1,426.9,60.7,416.6,60.7z M79.3,73.2h337.2c3.4,0,6.2,2.8,6.2,6.2v18.7H73.2V79.4
			C73.2,76,75.9,73.2,79.3,73.2z M416.6,422.8H79.4c-3.4,0-6.2-2.8-6.2-6.2V110.6h349.7v305.9C422.8,420,420,422.8,416.6,422.8z"/>
		<path class="st2" d="M85.5,79.4H98v12.5H85.5V79.4z"/>
		<path class="st2" d="M110.5,79.4H123v12.5h-12.5V79.4z"/>
		<path class="st2" d="M135.5,79.4H148v12.5h-12.5V79.4z"/>
		<path class="st2" d="M308.5,174.9l-50-50c-1.2-1.2-2.8-1.8-4.4-1.7V123H91.8c-3.4,0-6.2,2.8-6.2,6.2V404c0,3.4,2.8,6.2,6.2,6.2
			h212.3c3.4,0,6.2-2.8,6.2-6.2V179.3h-0.1C310.4,177.7,309.7,176,308.5,174.9z M260.4,144.4L289,173h-28.7V144.4z M98,397.8V135.5
			h150v43.7c0,3.4,2.8,6.2,6.2,6.2H298v212.3H98z"/>
		<path class="st2" d="M166.1,190.2c9.5-10,9.2-25.7-0.9-35.3c-10-9.5-25.7-9.2-35.3,0.9c-9.3,9.7-9.3,24.9,0,34.5
			c-12,6.6-19.4,19.2-19.4,32.7v6.2c0,3.4,2.8,6.2,6.2,6.2h62.5c3.4,0,6.2-2.8,6.2-6.2v-6.2C185.5,209.3,178.1,196.8,166.1,190.2z
			 M135.5,173c0-6.9,5.6-12.5,12.5-12.5s12.5,5.6,12.5,12.5s-5.6,12.5-12.5,12.5C141.1,185.5,135.5,179.9,135.5,173z M123,223
			c0-13.8,11.2-25,25-25c13.8,0,25,11.2,25,25H123z"/>
		<path class="st2" d="M179.3,248h-62.5c-3.4,0-6.2,2.8-6.2,6.2v50c0,3.4,2.8,6.2,6.2,6.2h62.5c3.4,0,6.2-2.8,6.2-6.2v-50
			C185.5,250.8,182.7,248,179.3,248z M173,298h-50v-37.5h50V298z"/>
		<path class="st2" d="M179.3,322.9h-62.5c-3.4,0-6.2,2.8-6.2,6.2v50c0,3.4,2.8,6.2,6.2,6.2h62.5c3.4,0,6.2-2.8,6.2-6.2v-50
			C185.5,325.7,182.7,322.9,179.3,322.9z M173,372.9h-50v-37.5h50V372.9z"/>
		<path class="st2" d="M198,260.5h12.5V273H198V260.5z"/>
		<path class="st2" d="M223,260.5h62.5V273H223L223,260.5L223,260.5z"/>
		<path class="st2" d="M198,285.5h12.5V298H198V285.5z"/>
		<path class="st2" d="M223,285.5h62.5V298H223L223,285.5L223,285.5z"/>
		<path class="st2" d="M198,335.4h12.5v12.5H198V335.4z"/>
		<path class="st2" d="M223,335.4h62.5v12.5H223L223,335.4L223,335.4z"/>
		<path class="st2" d="M198,360.4h12.5v12.5H198V360.4z"/>
		<path class="st2" d="M223,360.4h62.5v12.5H223L223,360.4L223,360.4z"/>
		<path class="st2" d="M198,223h12.5v12.5H198V223z"/>
		<path class="st2" d="M223,223h62.5v12.5H223L223,223L223,223z"/>
		<path class="st2" d="M198,198h12.5v12.5H198V198z"/>
		<path class="st2" d="M223,198h62.5v12.5H223L223,198L223,198z"/>
		<path class="st2" d="M198,173h12.5v12.5H198V173z"/>
		<path class="st2" d="M223,173h12.5v12.5H223V173z"/>
		<path class="st2" d="M404.1,123h-75c-3.4,0-6.2,2.8-6.2,6.2v62.5c0,3.4,2.8,6.2,6.2,6.2h75c3.4,0,6.2-2.8,6.2-6.2v-62.5
			C410.3,125.8,407.5,123,404.1,123z M397.8,185.5h-62.5v-50h62.5V185.5z"/>
		<path class="st2" d="M404.1,229.3h-75c-3.4,0-6.2,2.8-6.2,6.2V298c0,3.4,2.8,6.2,6.2,6.2h75c3.4,0,6.2-2.8,6.2-6.2v-62.5
			C410.3,232.1,407.5,229.3,404.1,229.3z M397.8,291.7h-62.5v-50h62.5V291.7z"/>
		<path class="st2" d="M404.1,335.4h-75c-3.4,0-6.2,2.8-6.2,6.2v62.5c0,3.4,2.8,6.2,6.2,6.2h75c3.4,0,6.2-2.8,6.2-6.2v-62.5
			C410.3,338.2,407.5,335.4,404.1,335.4z M397.8,397.8h-62.5v-50h62.5V397.8z"/>
	</g>
	<g>
		<path class="st1" d="M405.6,330.7c-36.9,0-67,30-67,67s30,67,67,67s67-30,67-67S442.6,330.7,405.6,330.7z"/>
		<path class="st2" d="M439.6,383.4l-36.3,36.3c-1.1,1.1-2.5,1.6-3.9,1.6s-2.9-0.5-3.9-1.6l-18.1-18.1c-2.2-2.2-2.2-5.7,0-7.9
			c2.2-2.2,5.7-2.2,7.9,0l14.2,14.2l32.3-32.3c2.2-2.2,5.7-2.2,7.9,0C441.8,377.7,441.8,381.3,439.6,383.4z"/>
	</g>
</g>
</svg>
